<?xml version="1.0" standalone="no"?>
<!DOCTYPE svg PUBLIC "-//W3C//DTD SVG 20010904//EN"
 "http://www.w3.org/TR/2001/REC-SVG-20010904/DTD/svg10.dtd">
<svg version="1.0" xmlns="http://www.w3.org/2000/svg"
 width="512.000000pt" height="512.000000pt" viewBox="0 0 512.000000 512.000000"
 preserveAspectRatio="xMidYMid meet">
<metadata>
Created by potrace 1.14, written by Peter Selinger 2001-2017
</metadata>
<g transform="translate(0.000000,512.000000) scale(0.100000,-0.100000)"
fill="#000000" stroke="none">
<path d="M2320 4980 c-9 -6 -10 -10 -3 -10 6 0 15 5 18 10 8 12 4 12 -15 0z"/>
<path d="M2620 4980 c-9 -6 -10 -10 -3 -10 6 0 15 5 18 10 8 12 4 12 -15 0z"/>
<path d="M2655 4981 c-3 -5 -2 -12 3 -15 5 -3 9 1 9 9 0 17 -3 19 -12 6z"/>
<path d="M2795 4980 c-3 -5 -1 -10 4 -10 6 0 11 5 11 10 0 6 -2 10 -4 10 -3 0
-8 -4 -11 -10z"/>
<path d="M2999 4978 c-5 -18 -6 -38 -1 -34 7 8 12 36 6 36 -2 0 -4 -1 -5 -2z"/>
<path d="M2166 4958 c3 -4 9 -8 15 -8 5 0 9 4 9 8 0 5 -7 9 -15 9 -8 0 -12 -4
-9 -9z"/>
<path d="M2274 4947 c2 -15 0 -27 -5 -27 -5 0 -9 6 -9 13 0 7 -3 8 -8 2 -4 -6
-30 -11 -59 -12 -42 -2 -51 1 -46 12 3 8 0 15 -6 15 -6 0 -10 -5 -8 -12 1 -9
-22 -13 -80 -14 -46 -1 -83 2 -83 7 0 5 -5 9 -11 9 -5 0 -7 -5 -4 -11 5 -7 -9
-9 -42 -7 -33 2 -47 7 -45 16 1 8 -2 11 -8 7 -6 -3 -8 -10 -5 -15 2 -4 -59 -8
-138 -8 -78 0 -144 -1 -147 -2 -15 -4 -50 -9 -87 -13 -24 -2 -46 -6 -49 -10
-4 -4 -14 -1 -22 6 -9 6 -13 7 -9 1 3 -6 -18 -15 -56 -24 -34 -7 -64 -14 -67
-15 -3 -1 -25 -7 -50 -14 -25 -7 -51 -18 -59 -24 -8 -7 -17 -12 -20 -11 -11 2
-63 -19 -120 -47 -30 -15 -59 -25 -64 -22 -6 3 -7 1 -3 -5 4 -7 -3 -14 -19
-18 -14 -3 -25 -10 -25 -16 0 -5 -4 -6 -10 -3 -5 3 -10 1 -10 -5 0 -7 -7 -10
-15 -6 -8 3 -14 0 -12 -7 1 -7 -6 -11 -15 -11 -10 1 -16 -2 -13 -6 3 -4 -6
-15 -20 -24 -27 -18 -39 -21 -31 -8 3 5 -1 9 -9 9 -11 0 -12 -4 -4 -13 7 -9 2
-18 -18 -33 -15 -12 -50 -41 -77 -64 -27 -23 -54 -41 -60 -39 -6 2 -8 0 -4 -4
10 -9 -11 -36 -23 -28 -5 3 -6 -3 -2 -12 5 -14 3 -16 -11 -11 -9 4 -15 3 -12
-2 8 -12 -89 -132 -99 -123 -3 4 -5 2 -4 -3 6 -19 -55 -102 -71 -98 -12 4 -13
3 -1 -5 11 -8 10 -15 -8 -40 -11 -17 -32 -53 -45 -81 -12 -28 -27 -47 -31 -43
-5 4 -6 3 -3 -3 3 -5 1 -21 -5 -35 -5 -14 -11 -29 -13 -35 -1 -5 -12 -37 -24
-70 -12 -33 -23 -67 -25 -75 -2 -8 -11 -46 -20 -85 -9 -38 -18 -81 -20 -95 -2
-14 -7 -43 -10 -65 -4 -22 -6 -82 -5 -134 0 -62 -4 -98 -12 -109 -8 -10 -9
-13 -1 -9 9 5 11 -53 11 -238 0 -135 -3 -243 -7 -241 -4 3 -7 -4 -7 -14 0 -10
4 -16 8 -14 5 3 7 -8 6 -25 -1 -16 -5 -28 -8 -26 -4 2 -7 -2 -7 -10 0 -8 4
-12 9 -9 4 3 8 -2 8 -11 0 -9 -4 -14 -8 -11 -4 2 -8 -4 -8 -14 0 -10 4 -16 8
-14 4 3 8 0 8 -5 0 -6 -6 -11 -12 -11 -8 0 -9 -3 -3 -8 14 -10 20 -66 6 -58
-6 4 -11 2 -11 -3 0 -6 6 -11 13 -11 8 0 7 -4 -3 -10 -10 -6 -11 -10 -2 -10 6
0 12 -12 12 -26 0 -14 -4 -23 -9 -19 -5 3 -13 0 -17 -6 -4 -8 -3 -9 5 -5 6 4
14 0 18 -9 3 -10 0 -21 -8 -26 -12 -7 -12 -9 1 -9 13 0 13 -1 0 -10 -8 -5 -10
-10 -4 -10 13 0 13 -89 0 -109 -6 -10 -6 -12 2 -7 7 4 12 1 12 -9 0 -9 -4 -14
-8 -11 -5 3 -9 -1 -9 -9 0 -8 4 -12 9 -9 4 3 8 -2 8 -11 0 -9 -4 -14 -8 -11
-5 3 -9 -1 -9 -9 0 -8 4 -12 9 -9 4 3 8 -2 8 -11 0 -9 -4 -14 -8 -11 -5 3 -9
-1 -9 -9 0 -8 3 -12 7 -10 4 2 7 -11 8 -30 1 -22 -3 -35 -11 -35 -8 0 -9 -3
-1 -8 16 -10 17 -321 1 -341 -9 -12 -9 -13 1 -7 7 4 12 2 12 -6 0 -8 -6 -20
-12 -27 -10 -10 -10 -12 -1 -7 9 5 13 -18 13 -91 2 -155 5 -193 12 -193 4 0 7
-8 6 -17 0 -25 10 -82 22 -122 5 -19 7 -38 4 -42 -3 -5 0 -9 6 -9 6 0 10 -6 9
-13 -1 -6 3 -25 9 -40 7 -16 12 -34 12 -42 0 -8 5 -17 10 -20 6 -3 10 -14 10
-23 0 -9 11 -39 25 -66 13 -27 21 -54 18 -60 -3 -6 -3 -8 2 -4 7 7 53 -69 58
-96 1 -5 10 -18 20 -28 10 -10 15 -24 11 -31 -4 -7 -4 -9 1 -5 11 11 38 -29
29 -44 -4 -7 -3 -8 4 -4 6 4 19 -6 29 -21 10 -15 22 -31 27 -34 5 -4 5 -12 1
-19 -5 -8 -4 -11 2 -7 13 8 66 -50 57 -64 -4 -7 -3 -9 3 -6 6 4 24 -8 40 -26
17 -17 42 -40 57 -51 14 -10 23 -23 19 -29 -3 -5 -1 -7 5 -4 5 4 22 -8 38 -25
15 -18 30 -33 33 -33 3 0 5 -4 3 -8 -1 -5 2 -6 8 -2 6 4 25 -5 43 -19 42 -34
48 -38 82 -57 17 -9 29 -21 27 -28 -1 -7 2 -9 9 -6 10 7 56 -11 69 -26 8 -9
181 -76 245 -94 33 -10 70 -21 83 -26 13 -5 35 -9 51 -9 15 0 31 -3 34 -6 4
-4 28 -9 54 -11 66 -5 76 -7 92 -17 9 -6 12 -5 8 1 -4 6 3 8 16 6 12 -2 67 -5
122 -6 77 -2 99 -5 97 -15 -1 -8 2 -11 8 -7 6 3 8 10 5 14 -2 5 31 8 75 8 49
0 77 -4 73 -10 -4 -6 -1 -7 8 -1 8 5 31 9 52 10 31 1 37 -2 33 -15 -5 -14 -5
-14 6 -1 16 18 139 23 150 6 5 -8 8 -7 8 2 0 9 7 8 28 -4 19 -11 22 -12 9 -1
-16 13 -14 15 25 15 23 1 49 -5 57 -11 12 -9 13 -9 7 0 -10 18 2 16 20 -2 9
-8 23 -15 32 -14 12 0 11 3 -5 9 -32 13 -29 20 7 17 18 -1 28 -7 26 -14 -5
-13 12 -12 34 2 19 12 150 16 150 4 0 -5 -8 -6 -17 -3 -15 5 -16 4 -3 -5 11
-8 18 -7 25 2 6 7 39 13 83 13 61 1 71 -1 61 -12 -10 -12 -9 -13 5 -8 9 3 16
9 16 13 0 3 27 6 60 6 50 1 60 -2 55 -15 -4 -11 -1 -10 9 3 16 20 46 22 65 5
11 -11 13 -10 7 0 -11 18 5 15 20 -6 11 -13 13 -14 9 -1 -5 13 3 16 39 16 28
1 43 -3 40 -9 -4 -6 1 -6 13 0 29 16 189 10 185 -6 -1 -8 2 -11 8 -7 6 3 8 10
5 16 -4 5 37 8 98 7 56 -1 109 2 117 7 9 6 11 4 5 -5 -6 -10 -4 -11 6 -4 16
10 15 9 91 18 58 7 77 10 117 22 19 6 22 4 16 -7 -5 -9 -1 -8 11 3 10 9 30 19
44 21 14 3 36 10 50 15 14 5 28 11 32 12 31 9 48 12 54 10 4 -1 10 4 14 10 4
7 19 13 33 13 14 1 24 4 22 6 -2 2 17 14 43 27 35 18 48 20 54 11 5 -8 8 -7 8
5 0 9 12 23 28 30 44 23 75 42 90 56 8 7 21 11 28 8 8 -3 11 0 8 9 -3 7 3 16
13 19 10 3 31 17 47 31 16 13 32 22 37 20 4 -3 11 0 15 6 5 8 3 9 -7 4 -8 -4
-5 1 6 12 11 12 22 20 25 19 3 0 6 3 7 7 3 14 37 36 47 30 5 -4 6 -1 2 5 -3 6
6 20 20 31 15 12 24 21 20 21 -3 0 12 18 34 40 22 22 37 40 33 40 -4 0 2 8 13
19 10 10 26 28 34 41 37 54 57 79 61 75 3 -2 6 5 6 17 1 11 8 28 16 37 7 9 26
42 41 74 15 31 31 55 36 52 4 -3 6 4 3 15 -3 11 0 20 6 20 6 0 10 3 9 8 -3 15
15 62 24 62 5 0 7 4 4 8 -7 12 15 82 25 77 4 -3 5 5 1 17 -3 11 -1 19 4 16 5
-4 10 6 10 20 2 43 8 72 14 72 3 0 6 16 7 36 1 19 8 43 15 51 10 12 10 17 1
20 -8 3 -9 12 -4 26 4 12 9 69 10 127 1 58 6 107 12 108 5 2 9 8 9 13 0 6 -4
7 -10 4 -14 -9 -12 28 3 44 9 11 9 12 0 7 -9 -5 -12 3 -11 28 1 21 5 33 11 29
6 -4 7 -1 1 8 -12 19 -14 69 -3 70 5 1 13 2 18 3 5 0 13 4 16 8 4 4 -4 5 -19
2 -19 -3 -26 0 -26 11 0 10 5 13 13 9 10 -6 10 -4 0 7 -17 17 -17 32 0 23 9
-6 9 -5 1 7 -13 15 -14 120 -2 113 5 -3 8 0 8 5 0 6 -4 11 -8 11 -4 0 -8 9 -9
20 -1 11 2 20 8 20 5 0 9 5 9 11 0 5 -4 8 -8 5 -10 -6 -9 95 1 112 5 6 4 12 0
12 -5 0 -9 11 -9 25 0 14 5 25 12 25 8 0 10 -9 7 -22 -3 -13 -3 -21 0 -18 3 3
8 17 11 32 3 21 1 25 -15 21 -11 -3 -19 0 -19 6 0 7 5 9 13 5 9 -6 9 -4 -1 8
-10 12 -10 18 -1 23 8 6 8 10 -2 16 -7 4 -10 11 -6 15 3 4 13 1 22 -6 10 -8
15 -9 15 -1 0 6 -5 11 -11 11 -6 0 -9 9 -6 20 3 12 -1 24 -11 30 -14 8 -14 9
-2 10 22 0 44 38 31 54 -6 7 -8 15 -5 18 2 3 -3 8 -12 12 -15 6 -15 4 0 -19
14 -21 15 -29 5 -41 -6 -8 -16 -14 -22 -14 -7 0 -7 4 1 12 13 13 17 32 4 24
-4 -2 -8 16 -8 40 l0 45 18 -23 19 -23 -12 28 c-7 15 -16 27 -21 27 -5 0 -6 4
-3 10 4 6 13 5 25 -2 10 -7 16 -16 13 -22 -3 -5 -1 -6 5 -3 12 8 10 32 -3 44
-4 4 -5 2 -1 -4 9 -15 -10 -18 -19 -3 -4 6 -11 7 -17 4 -6 -4 -9 -1 -6 7 3 8
14 13 24 11 15 -2 16 -1 4 7 -8 5 -18 7 -22 5 -4 -3 -8 0 -8 5 0 6 5 11 10 11
6 0 10 5 10 11 0 5 -3 8 -8 5 -10 -6 -9 256 2 273 6 9 5 12 -1 8 -6 -4 -10 8
-11 29 -1 25 2 33 11 27 8 -4 7 -1 -2 10 -11 14 -11 20 0 34 8 10 9 14 2 10
-15 -9 -14 32 1 52 8 11 8 13 -1 7 -8 -4 -13 -1 -13 9 0 13 4 14 23 5 l22 -11
-22 17 c-30 22 -31 54 -2 49 12 -3 18 -1 15 3 -4 4 -13 7 -19 7 -7 0 -13 15
-15 33 -2 21 1 32 10 32 9 0 9 3 -2 10 -12 8 -13 11 -1 19 7 5 9 10 3 12 -5 2
-12 51 -16 109 -7 127 -11 165 -21 209 -5 26 -4 32 5 26 9 -5 11 -4 6 4 -4 6
-12 9 -17 6 -5 -4 -9 5 -9 19 0 14 0 27 0 29 0 1 -16 46 -34 100 -19 53 -31
97 -28 97 4 0 2 4 -3 8 -17 12 -77 141 -71 151 4 5 1 13 -5 17 -8 5 -9 3 -4
-6 5 -9 4 -11 -3 -6 -7 4 -12 13 -12 21 0 7 -4 15 -9 17 -5 2 -11 9 -13 17 -3
15 -21 41 -46 67 -7 8 -14 23 -15 33 0 11 -4 18 -8 16 -6 -4 -49 40 -49 51 0
3 -14 19 -31 35 -17 16 -28 33 -24 39 4 6 3 9 -2 8 -12 -4 -64 38 -56 46 3 3
-1 6 -10 6 -15 0 -21 10 -19 31 1 3 -5 6 -12 6 -15 0 -86 54 -86 66 0 4 -6 7
-13 7 -7 0 -27 13 -45 30 -18 16 -35 30 -37 30 -17 1 -64 38 -57 45 4 5 2 5
-4 2 -6 -4 -38 7 -70 24 -64 33 -222 99 -237 99 -6 0 -16 8 -24 18 -8 9 -12
11 -8 5 7 -14 -4 -17 -29 -7 -9 3 -13 11 -9 18 4 7 2 7 -7 -1 -8 -7 -19 -9
-29 -4 -18 10 -22 11 -52 11 -11 0 -18 3 -16 8 3 4 -27 8 -66 10 -38 1 -76 7
-83 13 -8 7 -14 7 -19 -1 -3 -6 -11 -7 -18 -3 -6 4 -55 6 -109 6 -72 -1 -96 2
-91 10 5 9 3 9 -8 1 -16 -13 -101 -15 -93 -3 2 4 0 11 -6 14 -6 4 -9 1 -8 -7
2 -10 -13 -13 -59 -14 -41 -1 -63 2 -63 10 0 8 -2 8 -8 0 -4 -6 -26 -11 -50
-10 -34 0 -41 3 -37 16 4 11 1 10 -9 -2 -15 -20 -31 -25 -20 -6 5 7 3 8 -7 2
-8 -4 -27 -9 -42 -10 -27 -2 -28 -2 -10 12 16 14 16 14 -7 3 -33 -17 -63 -22
-55 -9 3 5 1 10 -4 10 -6 0 -11 -3 -11 -7 0 -11 -142 -10 -159 1 -10 6 -12 6
-7 -2 4 -7 2 -12 -3 -12 -6 0 -11 4 -11 9 0 5 -7 12 -16 15 -14 5 -15 4 -4 -9
15 -18 0 -20 -19 -2 -8 6 -11 7 -8 1 4 -8 -5 -11 -28 -10 -27 1 -34 5 -30 16
3 10 1 10 -9 -2 -15 -20 -31 -25 -20 -6 5 7 3 8 -7 2 -21 -13 -109 -14 -109 0
0 8 -2 8 -8 0 -4 -6 -25 -11 -46 -10 -30 1 -40 5 -42 19 -1 11 -5 22 -9 25 -3
4 -4 -6 -1 -21z m196 -4751 c0 -3 -4 -8 -10 -11 -5 -3 -10 -1 -10 4 0 6 5 11
10 11 6 0 10 -2 10 -4z"/>
<path d="M2717 4955 c-4 -8 -3 -16 1 -19 4 -3 9 4 9 15 2 23 -3 25 -10 4z"/>
<path d="M2753 4957 c0 -7 9 -13 19 -13 10 0 18 1 18 3 0 1 -8 7 -18 12 -13 7
-19 6 -19 -2z"/>
<path d="M2835 4961 c-3 -5 -2 -12 3 -15 5 -3 9 1 9 9 0 17 -3 19 -12 6z"/>
<path d="M3026 4962 c-2 -4 4 -8 14 -8 10 0 16 4 14 8 -3 4 -9 8 -14 8 -5 0
-11 -4 -14 -8z"/>
<path d="M2093 4945 c0 -8 4 -12 9 -9 5 3 6 10 3 15 -9 13 -12 11 -12 -6z"/>
<path d="M2355 4949 c-4 -6 -5 -12 -2 -15 2 -3 7 2 10 11 7 17 1 20 -8 4z"/>
<path d="M2390 4939 c0 -5 5 -7 10 -4 6 3 10 8 10 11 0 2 -4 4 -10 4 -5 0 -10
-5 -10 -11z"/>
<path d="M2422 4945 c3 -3 16 -8 28 -10 12 -2 20 -1 16 2 -4 4 -16 8 -28 10
-12 2 -19 1 -16 -2z"/>
<path d="M2548 4943 c7 -3 16 -2 19 1 4 3 -2 6 -13 5 -11 0 -14 -3 -6 -6z"/>
<path d="M2668 4938 c5 -5 16 -8 23 -6 8 3 3 7 -10 11 -17 4 -21 3 -13 -5z"/>
<path d="M3106 4942 c-3 -4 4 -9 15 -9 23 -2 25 3 4 10 -8 4 -16 3 -19 -1z"/>
<path d="M4110 4766 c0 -2 7 -7 16 -10 8 -3 12 -2 9 4 -6 10 -25 14 -25 6z"/>
<path d="M4936 3422 c-3 -5 1 -9 9 -9 8 0 12 4 9 9 -3 4 -7 8 -9 8 -2 0 -6 -4
-9 -8z"/>
<path d="M153 3247 c0 -8 6 -14 14 -14 9 0 10 4 2 14 -6 7 -12 13 -14 13 -1 0
-2 -6 -2 -13z"/>
<path d="M4947 3139 c7 -7 15 -10 18 -7 3 3 -2 9 -12 12 -14 6 -15 5 -6 -5z"/>
<path d="M4946 3078 c3 -5 10 -6 15 -3 13 9 11 12 -6 12 -8 0 -12 -4 -9 -9z"/>
<path d="M4920 3071 c0 -6 4 -13 10 -16 6 -3 7 1 4 9 -7 18 -14 21 -14 7z"/>
<path d="M4921 3004 c0 -11 3 -14 6 -6 3 7 2 16 -1 19 -3 4 -6 -2 -5 -13z"/>
<path d="M4950 2979 c0 -5 5 -7 10 -4 6 3 10 8 10 11 0 2 -4 4 -10 4 -5 0 -10
-5 -10 -11z"/>
<path d="M4926 2965 c-9 -26 -7 -32 5 -12 6 10 9 21 6 23 -2 3 -7 -2 -11 -11z"/>
<path d="M4946 2918 c3 -5 10 -6 15 -3 13 9 11 12 -6 12 -8 0 -12 -4 -9 -9z"/>
<path d="M4951 2867 c-8 -10 -7 -14 2 -14 8 0 14 6 14 14 0 7 -1 13 -2 13 -2
0 -8 -6 -14 -13z"/>
<path d="M4923 2835 c0 -7 6 -11 14 -8 7 3 13 6 13 8 0 2 -6 5 -13 8 -8 3 -14
-1 -14 -8z"/>
<path d="M150 2816 c0 -2 8 -10 18 -17 15 -13 16 -12 3 4 -13 16 -21 21 -21
13z"/>
<path d="M4933 2803 c-3 -10 -8 -22 -11 -27 -3 -5 0 -6 5 -3 11 7 25 47 17 47
-3 0 -7 -8 -11 -17z"/>
<path d="M130 2779 c0 -5 5 -7 10 -4 6 3 10 8 10 11 0 2 -4 4 -10 4 -5 0 -10
-5 -10 -11z"/>
<path d="M4950 2770 c-9 -6 -10 -10 -3 -10 6 0 15 5 18 10 8 12 4 12 -15 0z"/>
<path d="M4946 2742 c-3 -5 1 -9 9 -9 8 0 15 4 15 9 0 4 -4 8 -9 8 -6 0 -12
-4 -15 -8z"/>
<path d="M150 2681 c0 -6 4 -13 10 -16 6 -3 7 1 4 9 -7 18 -14 21 -14 7z"/>
<path d="M158 2573 c7 -3 16 -2 19 1 4 3 -2 6 -13 5 -11 0 -14 -3 -6 -6z"/>
<path d="M4959 2533 c-12 -16 -12 -17 2 -6 9 7 20 9 24 5 5 -4 5 -1 1 6 -9 16
-11 15 -27 -5z"/>
<path d="M4937 2419 c7 -7 15 -10 18 -7 3 3 -2 9 -12 12 -14 6 -15 5 -6 -5z"/>
<path d="M160 2400 c-9 -6 -10 -10 -3 -10 6 0 15 5 18 10 8 12 4 12 -15 0z"/>
<path d="M4975 2349 c-4 -6 -5 -12 -2 -15 2 -3 7 2 10 11 7 17 1 20 -8 4z"/>
<path d="M4947 2316 c5 -14 3 -17 -7 -11 -8 5 -11 4 -7 -3 8 -11 33 -11 42 1
3 4 2 5 -2 2 -3 -3 -12 3 -20 13 -12 16 -13 16 -6 -2z"/>
<path d="M4923 2275 c0 -7 6 -11 14 -8 7 3 13 6 13 8 0 2 -6 5 -13 8 -8 3 -14
-1 -14 -8z"/>
<path d="M130 2259 c0 -5 5 -7 10 -4 6 3 10 8 10 11 0 2 -4 4 -10 4 -5 0 -10
-5 -10 -11z"/>
<path d="M4953 2232 c-8 -14 -8 -19 1 -19 7 0 13 9 13 19 1 10 1 18 0 18 -1 0
-7 -8 -14 -18z"/>
<path d="M149 2203 c-13 -16 -12 -17 4 -4 9 7 17 15 17 17 0 8 -8 3 -21 -13z"/>
<path d="M4936 2181 c-4 -5 3 -7 14 -4 23 6 26 13 6 13 -8 0 -17 -4 -20 -9z"/>
<path d="M126 2158 c3 -5 10 -6 15 -3 13 9 11 12 -6 12 -8 0 -12 -4 -9 -9z"/>
<path d="M4987 2159 c7 -7 15 -10 18 -7 3 3 -2 9 -12 12 -14 6 -15 5 -6 -5z"/>
<path d="M4947 2119 c7 -7 15 -10 18 -7 3 3 -2 9 -12 12 -14 6 -15 5 -6 -5z"/>
<path d="M4921 2044 c0 -11 3 -14 6 -6 3 7 2 16 -1 19 -3 4 -6 -2 -5 -13z"/>
<path d="M4947 1999 c7 -7 15 -10 18 -7 3 3 -2 9 -12 12 -14 6 -15 5 -6 -5z"/>
<path d="M4935 1700 c-3 -5 -1 -10 4 -10 6 0 11 5 11 10 0 6 -2 10 -4 10 -3 0
-8 -4 -11 -10z"/>
<path d="M1735 179 c-3 -4 2 -6 10 -5 21 3 28 13 10 13 -9 0 -18 -4 -20 -8z"/>
<path d="M2160 186 c0 -2 7 -7 16 -10 8 -3 12 -2 9 4 -6 10 -25 14 -25 6z"/>
<path d="M2296 181 c-3 -5 2 -15 12 -22 16 -13 16 -13 2 5 -14 18 -13 19 8 14
12 -4 20 -2 16 3 -7 12 -31 12 -38 0z"/>
<path d="M2494 182 c3 -3 22 -6 42 -8 19 -1 33 0 30 3 -3 4 -22 7 -41 8 -20 2
-34 0 -31 -3z"/>
<path d="M2699 188 c-6 -21 -5 -37 2 -32 5 3 7 9 4 14 -3 4 1 11 7 13 10 4 10
6 1 6 -7 1 -13 0 -14 -1z"/>
<path d="M2734 165 c0 -13 3 -22 7 -19 8 4 6 30 -2 38 -3 3 -5 -5 -5 -19z"/>
<path d="M3040 180 c-9 -6 -10 -10 -3 -10 6 0 15 5 18 10 8 12 4 12 -15 0z"/>
<path d="M3230 179 c0 -5 5 -7 10 -4 6 3 10 8 10 11 0 2 -4 4 -10 4 -5 0 -10
-5 -10 -11z"/>
<path d="M1895 171 c-3 -5 -2 -12 3 -15 5 -3 9 1 9 9 0 17 -3 19 -12 6z"/>
<path d="M2813 163 c0 -8 6 -9 19 -2 10 5 18 11 18 12 0 2 -8 3 -18 3 -10 0
-19 -6 -19 -13z"/>
<path d="M2870 170 c0 -5 5 -10 11 -10 5 0 7 5 4 10 -3 6 -8 10 -11 10 -2 0
-4 -4 -4 -10z"/>
<path d="M2345 160 c-3 -6 1 -7 9 -4 18 7 21 14 7 14 -6 0 -13 -4 -16 -10z"/>
<path d="M2475 160 c3 -5 8 -10 11 -10 2 0 4 5 4 10 0 6 -5 10 -11 10 -5 0 -7
-4 -4 -10z"/>
<path d="M2580 166 c0 -2 8 -10 18 -17 15 -13 16 -12 3 4 -13 16 -21 21 -21
13z"/>
<path d="M2775 160 c-3 -5 -1 -10 4 -10 6 0 11 5 11 10 0 6 -2 10 -4 10 -3 0
-8 -4 -11 -10z"/>
<path d="M2926 161 c-3 -4 4 -7 14 -6 27 2 33 10 10 12 -11 1 -22 -2 -24 -6z"/>
<path d="M2250 146 c0 -2 7 -7 16 -10 8 -3 12 -2 9 4 -6 10 -25 14 -25 6z"/>
</g>
</svg>
